<svg xmlns="http://www.w3.org/2000/svg" viewBox="0 0 491.59 491.59"><g id="Layer_2" data-name="Layer 2"><g id="Layer_1-2" data-name="Layer 1"><path d="M228.72,199.25a13.79,13.79,0,0,0-7,1.77c-6.51,3.76-9,12.92-7.68,24.33-10.53,4.57-17.22,11.29-17.22,18.81s6.69,14.24,17.22,18.81c-1.31,11.4,1.17,20.57,7.68,24.33a13.74,13.74,0,0,0,7,1.76c5.41,0,11.66-2.71,17.94-7.37,6.27,4.66,12.53,7.37,17.94,7.37a13.76,13.76,0,0,0,7-1.76c6.51-3.76,9-12.93,7.68-24.33,10.53-4.57,17.22-11.29,17.22-18.81s-6.7-14.24-17.23-18.81c1.31-11.41-1.17-20.57-7.68-24.33a13.74,13.74,0,0,0-7-1.77c-5.41,0-11.66,2.72-17.93,7.37C240.38,202,234.13,199.25,228.72,199.25Zm0,7.27c3.25,0,7.54,1.72,12.2,4.92a80.86,80.86,0,0,0-8,8.79,81.8,81.8,0,0,0-11.79,2.57c0-.25-.07-.52-.08-.77-.45-7.38,1.18-12.89,4.33-14.72A6.53,6.53,0,0,1,228.72,206.52Zm35.87,0a6.5,6.5,0,0,1,3.34.79c3.16,1.82,4.78,7.34,4.34,14.72,0,.25-.06.52-.08.77a82.24,82.24,0,0,0-11.8-2.57,80.8,80.8,0,0,0-8-8.79C257.05,208.24,261.35,206.52,264.59,206.52Zm-17.93,9.53c1.12,1,2.24,2.11,3.37,3.29-1.12,0-2.23-.09-3.37-.09s-2.25.05-3.37.09C244.42,218.16,245.53,217.07,246.66,216.05Zm0,10.47a92,92,0,0,1,9.79.52,84.71,84.71,0,0,1,9.94,17.12,83.85,83.85,0,0,1-9.92,17.09,89.29,89.29,0,0,1-19.61,0,88.69,88.69,0,0,1-5.48-8.28,90.22,90.22,0,0,1-4.46-8.83,89,89,0,0,1,4.46-8.82,87.8,87.8,0,0,1,5.47-8.27A90.41,90.41,0,0,1,246.66,226.52Zm19.7,2.24c1.64.4,3.23.83,4.72,1.31-.34,1.52-.75,3.07-1.22,4.64-.53-1-1.05-2-1.63-3S267,229.75,266.36,228.76Zm-39.41,0c-.62,1-1.27,1.91-1.87,2.94s-1.09,2-1.63,3c-.46-1.57-.88-3.12-1.22-4.65C223.75,229.58,225.33,229.16,227,228.77Zm-11.55,4A80.73,80.73,0,0,0,219,244.15a82.73,82.73,0,0,0-3.64,11.4c-7.22-3.49-11.29-7.84-11.29-11.39s3.95-7.81,10.57-11.12C214.91,232.93,215.17,232.84,215.4,232.73Zm62.51,0c7.23,3.49,11.29,7.83,11.29,11.39s-3.95,7.8-10.57,11.11c-.22.12-.48.21-.71.32a81.74,81.74,0,0,0-3.64-11.43A81.61,81.61,0,0,0,277.91,232.77ZM223.45,253.6c.54,1,1.06,2,1.64,3s1.25,1.95,1.87,2.94c-1.65-.39-3.23-.82-4.72-1.3C222.58,256.72,223,255.17,223.45,253.6Zm46.41,0c.47,1.57.89,3.12,1.22,4.65-1.51.48-3.09.9-4.71,1.29.61-1,1.27-1.91,1.86-2.94S269.33,254.61,269.86,253.61Zm-48.73,11.9a81.05,81.05,0,0,0,11.79,2.57,81.12,81.12,0,0,0,8,8.81c-4.66,3.19-8.95,4.92-12.2,4.92a6.63,6.63,0,0,1-3.34-.8c-3.15-1.83-4.78-7.33-4.33-14.72C221.06,266,221.11,265.77,221.13,265.51Zm51.06,0c0,.26.06.53.08.78.44,7.39-1.18,12.89-4.34,14.72a6.58,6.58,0,0,1-3.34.8c-3.24,0-7.54-1.73-12.19-4.92a81.12,81.12,0,0,0,8-8.81A81.05,81.05,0,0,0,272.19,265.51ZM243.28,269c1.12,0,2.24.09,3.38.09s2.25-.05,3.37-.09c-1.13,1.19-2.25,2.27-3.37,3.3C245.53,271.24,244.41,270.16,243.28,269Z" fill="#f7a432"/><path d="M220.07,159V0H100C44.79,0,0,45,0,100.53V221.17H158.65A90.73,90.73,0,0,1,220.07,159Zm-78.45-2.87-29-29-29,29-14.5-14.48,29-29-29-29L83.67,69.21l29,29,29-29,14.5,14.5-29,29,29,29Z" fill="#f7a432"/><path d="M157.59,266.28H0v122.9A102.42,102.42,0,0,0,102.42,491.59H225.31V334A90.66,90.66,0,0,1,157.59,266.28Zm6.27,122.9h-41v41H102.42v-41h-41V368.69h41v-41H122.9v41h41Z" fill="#f7a432"/><path d="M389.18,0H266.28V157.59A90.66,90.66,0,0,1,334,225.31H491.59V102.42A102.41,102.41,0,0,0,389.18,0ZM378.94,61.45a10.24,10.24,0,1,1-10.25,10.24A10.25,10.25,0,0,1,378.94,61.45Zm0,102.41a10.24,10.24,0,1,1,10.24-10.24A10.24,10.24,0,0,1,378.94,163.86Zm51.2-41H327.73V102.42H430.14Z" fill="#f7a432"/><path d="M266.28,334V491.59h122.9A102.41,102.41,0,0,0,491.59,389.18V266.28H334A90.66,90.66,0,0,1,266.28,334Zm163.86,75.66H327.73V389.18H430.14Zm0-41H327.73V348.21H430.14Z" fill="#f7a432"/><path d="M246.66,166.67a77.49,77.49,0,1,0,77.49,77.49A77.49,77.49,0,0,0,246.66,166.67Zm0,142.33a64.84,64.84,0,1,1,64.83-64.84A64.84,64.84,0,0,1,246.66,309Z" fill="#010101"/></g></g></svg>